<svg width="124" height="124" viewBox="0 0 124 124" fill="none" xmlns="http://www.w3.org/2000/svg">
<g id="Group">
<g id="Group_2">
<path id="Vector" d="M24.4004 64.6319L24.4075 64.6258L24.4141 64.6192C25.0365 63.9968 26.0021 64.1184 26.6908 64.8071C27.3113 65.4276 27.1924 66.3893 26.5092 67.0776L16.7631 75.5117C15.9022 76.0211 15.0852 76.0026 14.4366 75.5202L4.6806 67.0776C3.99739 66.3893 3.87845 65.4276 4.49894 64.8071C5.18765 64.1184 6.15332 63.9968 6.77569 64.6192L6.78228 64.6258L6.78934 64.6319L13.553 70.4561L13.9661 70.8119V70.2667V58.6182C13.9661 44.2536 22.1731 31.1809 36.1936 23.5163L36.3091 23.4532L36.3224 23.3222C37.6247 10.485 48.6032 0.25 62.0009 0.25C75.4016 0.25 86.3759 10.4873 87.4913 22.9435L87.5031 23.0746L87.6178 23.1391C90.6084 24.8214 93.2256 26.6906 95.6569 28.7478C104.812 36.5954 109.848 47.0492 109.848 58.2424V71.7697V72.3053L110.258 71.9613L117.21 66.1371L117.218 66.13L117.226 66.1222C117.849 65.4999 118.814 65.6214 119.503 66.3101C120.123 66.9304 120.005 67.8916 119.322 68.5798L109.378 77.023C109.377 77.0237 109.376 77.0244 109.375 77.0251C108.55 77.6837 107.566 77.5271 106.893 76.8535L106.886 76.847L106.879 76.841L97.3047 68.5805C96.6216 67.8922 96.5027 66.9306 97.1232 66.3101L97.1357 66.2976L97.1464 66.2833C97.3794 65.9726 97.78 65.766 98.2148 65.7246C98.6469 65.6835 99.0856 65.8079 99.3999 66.1222L99.4065 66.1288L99.4136 66.1349L106.177 71.9591L106.59 72.3149V71.7697V58.4303C106.59 45.5518 99.2035 34.394 88.061 27.4064L87.7031 27.1819L87.6786 27.6037C86.9345 40.4401 76.7021 50.6747 63.8617 51.6052L63.6297 51.622V51.8545V65.0061V65.5971L64.0539 65.1855L70.4418 58.9855L70.4444 58.9828C71.0983 58.329 72.0673 58.329 72.7211 58.9828C73.375 59.6367 73.375 60.6057 72.7211 61.2596L63.1393 70.8414C62.9662 71.0145 62.803 71.1344 62.6274 71.2125C62.453 71.29 62.2536 71.3318 62.0009 71.3318C61.7483 71.3318 61.5489 71.29 61.3745 71.2125C61.1989 71.1344 61.0357 71.0145 60.8626 70.8414L51.2808 61.2596C50.6269 60.6057 50.6269 59.6367 51.2808 58.9828C51.9346 58.329 52.9036 58.329 53.5575 58.9828L59.9454 65.3707L60.3722 65.7975V65.1939V52.0424V51.8101L60.1405 51.7931C47.4881 50.8628 37.2536 40.8155 36.323 27.7883L36.2937 27.378L35.943 27.5929C24.2309 34.7713 17.2237 46.3075 17.2237 58.8061V70.2667V70.8119L17.6368 70.4561L24.4004 64.6319ZM46.9349 42.5367L46.85 42.7065L46.9908 42.8339C50.9827 46.4456 56.3032 48.5349 62.0009 48.5349C67.6987 48.5349 73.0192 46.4456 77.0111 42.8339L77.1491 42.709L77.0691 42.541C75.1483 38.5073 71.1142 36.0106 66.6979 36.0106H57.304C52.882 36.0106 48.8533 38.7 46.9349 42.5367ZM79.2577 39.7684L79.4413 40.0831L79.6689 39.7986C82.7071 36.0008 84.6085 31.2497 84.6085 25.9273C84.6085 13.5757 74.5376 3.50758 62.0009 3.50758C49.4629 3.50758 39.3934 13.5771 39.3934 26.1152C39.3934 31.2486 41.294 36.1878 44.333 39.9865L44.5606 40.271L44.7442 39.9563C47.3297 35.524 52.1323 32.753 57.304 32.753H59.7464L59.7971 32.2582C54.456 31.1532 50.4146 26.5516 50.4146 21.0424C50.4146 14.7952 55.5607 9.64394 62.0009 9.64394C68.4457 9.64394 73.5829 14.7978 73.3996 20.847L73.3994 20.847V20.8545C73.3994 26.3637 69.3581 30.9653 64.017 32.0703L64.0676 32.5652H66.51C71.8713 32.5652 76.6731 35.3376 79.2577 39.7684ZM53.6722 21.0424C53.6722 25.5055 57.3576 29.1833 62.0009 29.1833C66.6443 29.1833 70.3297 25.5055 70.3297 21.0424C70.3297 16.5793 66.6443 12.9015 62.0009 12.9015C57.3576 12.9015 53.6722 16.5793 53.6722 21.0424Z" fill="#B29152" stroke="white" stroke-width="0.5"/>
</g>
<g id="Group_3">
<path id="Vector_2" d="M24.8462 104.067L24.2426 104.482L24.974 104.523C31.6063 104.891 37.1379 110.607 37.1379 117.424V122.121C37.1379 122.628 36.97 123.031 36.6944 123.307C36.4188 123.582 36.0159 123.75 35.5091 123.75H1.87879C1.37196 123.75 0.969036 123.582 0.693443 123.307C0.41785 123.031 0.25 122.628 0.25 122.121V117.424C0.25 110.419 5.78163 104.703 12.6014 104.335L13.3907 104.292L12.7204 103.873C9.78958 102.041 7.95303 98.7409 7.95303 95.0669C7.95303 89.1984 12.9083 84.4199 18.7879 84.4199C24.8526 84.4199 29.6227 89.1956 29.6227 95.0669C29.6227 98.9244 27.7892 102.044 24.8462 104.067ZM3.50758 120.243V120.493H3.75758H33.1924H33.4424H33.6303V120.243H33.6924V117.424C33.6924 112.217 29.4504 107.781 24.0485 107.781H13.1515C7.94398 107.781 3.50758 112.023 3.50758 117.424V120.243ZM26.3652 95.0669C26.3652 90.975 22.8629 87.6775 18.7879 87.6775C14.7128 87.6775 11.2106 90.975 11.2106 95.0669C11.2106 99.1588 14.7128 102.456 18.7879 102.456C23.055 102.456 26.3652 99.1546 26.3652 95.0669Z" fill="#B29152" stroke="white" stroke-width="0.5"/>
</g>
<g id="Group_4">
<path id="Vector_3" d="M68.073 100.673L67.2557 101.14H68.1971H70.8274C78.0078 101.14 83.732 107.033 84.1046 114.236V122.121C84.1046 122.627 83.9368 123.03 83.6612 123.306C83.3856 123.582 82.9827 123.749 82.4759 123.749H42.0819C41.5751 123.749 41.1722 123.582 40.8966 123.306C40.621 123.03 40.4531 122.627 40.4531 122.121V114.042C40.4531 107.038 46.1678 101.14 53.3546 101.14H56.1728L56.2888 100.669C52.4234 98.6441 49.6592 94.4068 49.6592 89.6176C49.6592 82.8017 55.186 77.0918 62.1849 77.0918C69.0008 77.0918 74.7107 82.6186 74.7107 89.6176C74.7107 94.4012 71.9511 98.4572 68.073 100.673ZM80.2213 120.492H80.4713V120.242V114.23C80.4713 109.022 76.2293 104.586 70.8274 104.586H53.1668C47.9592 104.586 43.5228 108.828 43.5228 114.23V120.242V120.492H43.7728H80.2213ZM61.9971 80.3494C56.9775 80.3494 52.7289 84.4034 52.7289 89.6176C52.7289 94.8317 56.9775 98.8857 61.9971 98.8857C67.0166 98.8857 71.2652 94.8317 71.2652 89.6176C71.2652 84.5946 67.02 80.3494 61.9971 80.3494Z" fill="#B29152" stroke="white" stroke-width="0.5"/>
</g>
<g id="Group_5">
<path id="Vector_4" d="M111.456 104.067L110.851 104.483L111.584 104.523C118.401 104.891 123.747 110.604 123.747 117.424V122.121C123.747 122.628 123.579 123.031 123.304 123.307C123.028 123.582 122.625 123.75 122.118 123.75H88.4882C87.9813 123.75 87.5784 123.582 87.3028 123.307C87.0272 123.031 86.8594 122.628 86.8594 122.121V117.237C86.8594 110.421 92.3887 104.703 99.2107 104.335L100 104.292L99.3298 103.873C96.399 102.041 94.5624 98.7409 94.5624 95.0669C94.5624 89.1984 99.5176 84.4199 105.397 84.4199C111.462 84.4199 116.232 89.1956 116.232 95.0669C116.232 98.9244 114.399 102.044 111.456 104.067ZM97.8203 95.055L97.82 95.055V95.0669C97.82 99.1588 101.322 102.456 105.397 102.456C109.664 102.456 112.975 99.1546 112.975 95.0669C112.975 90.975 109.472 87.6775 105.397 87.6775C101.312 87.6775 98.0142 90.9831 97.8203 95.055ZM120.24 120.493H120.49V120.243V117.424C120.49 112.217 116.248 107.781 110.846 107.781H99.7609C94.5534 107.781 90.117 112.023 90.117 117.424V120.243V120.493H90.367H120.24Z" fill="#B29152" stroke="white" stroke-width="0.5"/>
</g>
</g>
</svg>
