<svg width="124" height="124" viewBox="0 0 124 124" fill="none" xmlns="http://www.w3.org/2000/svg">
<g id="Group 33">
<path id="Vector" d="M66.1423 4.29357L66.1613 4.02586H65.8929H56.1012C54.1978 4.02586 52.3723 4.782 51.0264 6.12793C49.6804 7.47386 48.9243 9.29933 48.9243 11.2028V15.3076V15.5651L49.1817 15.5575C53.1885 15.439 57.2835 14.4807 60.4498 12.6292C63.6199 10.7754 65.8783 8.01197 66.1423 4.29357ZM49.1686 19.3335L48.9243 19.3391V19.5834V23.5172C48.9243 26.9856 50.3021 30.312 52.7546 32.7645C55.2072 35.217 58.5335 36.5948 62.0019 36.5948C65.4703 36.5948 68.7966 35.217 71.2491 32.7645C73.7017 30.312 75.0795 26.9856 75.0795 23.5172V11.2035C75.0878 9.70466 74.6266 8.24083 73.7607 7.01741C72.8946 5.7938 71.6672 4.87211 70.2506 4.38169L69.9587 4.28065L69.9207 4.58714C69.1949 10.4354 65.8776 14.0708 61.8054 16.2743C57.7234 18.483 52.8868 19.2485 49.1686 19.3335ZM73.9191 35.4344C70.7584 38.5951 66.4717 40.3707 62.0019 40.3707C57.5321 40.3707 53.2453 38.5951 50.0847 35.4344C46.9241 32.2738 45.1484 27.9871 45.1484 23.5172V11.203C45.154 8.2998 46.3098 5.51711 48.3627 3.46423C50.4155 1.41135 53.1982 0.255586 56.1014 0.25H67.9023C70.8055 0.255586 73.5882 1.41135 75.6411 3.46423C77.694 5.51716 78.8498 8.29995 78.8553 11.2032V23.5172C78.8553 27.9871 77.0797 32.2738 73.9191 35.4344Z" fill="#B29152" stroke="white" stroke-width="0.5"/>
<g id="Vector_2">
<mask id="path-2-inside-1_8404_9531" fill="white">
<path d="M121.862 74.8282H100.483V47.0351C100.483 42.499 98.6808 38.1486 95.4733 34.9411C92.2658 31.7336 87.9154 29.9316 83.3793 29.9316C82.8123 29.9316 82.2685 30.1569 81.8676 30.5578C81.4666 30.9588 81.2414 31.5026 81.2414 32.0696C81.2414 32.6366 81.4666 33.1804 81.8676 33.5813C82.2685 33.9823 82.8123 34.2075 83.3793 34.2075C86.7814 34.2075 90.0442 35.559 92.4498 37.9646C94.8554 40.3703 96.2069 43.633 96.2069 47.0351V74.8282H91.931V63.5185C91.9653 58.6285 90.0613 53.924 86.6356 50.4342C83.21 46.9444 78.5416 44.9536 73.6517 44.8972H50.3483C45.4585 44.9536 40.79 46.9444 37.3644 50.4342C33.9387 53.924 32.0347 58.6285 32.069 63.5185V74.8282H27.7931V47.0351C27.7931 43.633 29.1446 40.3703 31.5502 37.9646C33.9559 35.559 37.2186 34.2075 40.6207 34.2075C41.1877 34.2075 41.7315 33.9823 42.1324 33.5813C42.5334 33.1804 42.7586 32.6366 42.7586 32.0696C42.7586 31.5026 42.5334 30.9588 42.1324 30.5578C41.7315 30.1569 41.1877 29.9316 40.6207 29.9316C36.0846 29.9316 31.7342 31.7336 28.5267 34.9411C25.3192 38.1486 23.5172 42.499 23.5172 47.0351V74.8282H2.13793C1.57092 74.8282 1.02713 75.0534 0.626185 75.4544C0.225246 75.8553 0 76.3991 0 76.9661L0 121.863C0 122.43 0.225246 122.973 0.626185 123.374C1.02713 123.775 1.57092 124.001 2.13793 124.001H121.862C122.429 124.001 122.973 123.775 123.374 123.374C123.775 122.973 124 122.43 124 121.863V76.9661C124 76.3991 123.775 75.8553 123.374 75.4544C122.973 75.0534 122.429 74.8282 121.862 74.8282ZM66.6821 56.9337L66.2759 55.0737C66.1588 54.5994 65.8828 54.1794 65.4938 53.8838C65.1048 53.5881 64.6263 53.4347 64.1379 53.4489H59.8621C59.3737 53.4347 58.8952 53.5881 58.5062 53.8838C58.1172 54.1794 57.8412 54.5994 57.7241 55.0737L57.2538 56.9337L53.2986 49.173H70.7014L66.6821 56.9337ZM63.7103 62.642L62 65.913L60.2897 62.642L61.5297 57.7247H62.4703L63.7103 62.642ZM36.3448 63.5185C36.3141 60.076 37.5316 56.7388 39.7721 54.1249C42.0126 51.511 45.1243 49.7974 48.531 49.3013L56.1848 64.0103L60.0972 71.5144C60.2767 71.8646 60.5492 72.1585 60.885 72.3637C61.2207 72.5689 61.6065 72.6775 62 72.6775C62.3935 72.6775 62.7793 72.5689 63.1151 72.3637C63.4508 72.1585 63.7234 71.8646 63.9028 71.5144L67.8152 64.1385L75.469 49.4296C78.8538 49.9226 81.948 51.6177 84.1857 54.2048C86.4234 56.7918 87.6549 60.098 87.6552 63.5185V74.8282H83.3793V70.5523C83.3793 69.9853 83.1541 69.4415 82.7531 69.0406C82.3522 68.6396 81.8084 68.4144 81.2414 68.4144C80.6744 68.4144 80.1306 68.6396 79.7296 69.0406C79.3287 69.4415 79.1035 69.9853 79.1035 70.5523V74.8282H44.8966V70.5523C44.8966 69.9853 44.6713 69.4415 44.2704 69.0406C43.8694 68.6396 43.3256 68.4144 42.7586 68.4144C42.1916 68.4144 41.6478 68.6396 41.2469 69.0406C40.8459 69.4415 40.6207 69.9853 40.6207 70.5523V74.8282H36.3448V63.5185ZM4.27586 79.104H119.724V83.3799H4.27586V79.104ZM32.069 119.725V104.759H91.931V119.725H32.069ZM119.724 119.725H96.2069V102.621C96.2069 102.054 95.9817 101.51 95.5807 101.11C95.1798 100.709 94.636 100.483 94.069 100.483H29.931C29.364 100.483 28.8202 100.709 28.4193 101.11C28.0183 101.51 27.7931 102.054 27.7931 102.621V119.725H4.27586V87.6558H119.724V119.725Z"/>
</mask>
<path d="M121.862 74.8282H100.483V47.0351C100.483 42.499 98.6808 38.1486 95.4733 34.9411C92.2658 31.7336 87.9154 29.9316 83.3793 29.9316C82.8123 29.9316 82.2685 30.1569 81.8676 30.5578C81.4666 30.9588 81.2414 31.5026 81.2414 32.0696C81.2414 32.6366 81.4666 33.1804 81.8676 33.5813C82.2685 33.9823 82.8123 34.2075 83.3793 34.2075C86.7814 34.2075 90.0442 35.559 92.4498 37.9646C94.8554 40.3703 96.2069 43.633 96.2069 47.0351V74.8282H91.931V63.5185C91.9653 58.6285 90.0613 53.924 86.6356 50.4342C83.21 46.9444 78.5416 44.9536 73.6517 44.8972H50.3483C45.4585 44.9536 40.79 46.9444 37.3644 50.4342C33.9387 53.924 32.0347 58.6285 32.069 63.5185V74.8282H27.7931V47.0351C27.7931 43.633 29.1446 40.3703 31.5502 37.9646C33.9559 35.559 37.2186 34.2075 40.6207 34.2075C41.1877 34.2075 41.7315 33.9823 42.1324 33.5813C42.5334 33.1804 42.7586 32.6366 42.7586 32.0696C42.7586 31.5026 42.5334 30.9588 42.1324 30.5578C41.7315 30.1569 41.1877 29.9316 40.6207 29.9316C36.0846 29.9316 31.7342 31.7336 28.5267 34.9411C25.3192 38.1486 23.5172 42.499 23.5172 47.0351V74.8282H2.13793C1.57092 74.8282 1.02713 75.0534 0.626185 75.4544C0.225246 75.8553 0 76.3991 0 76.9661L0 121.863C0 122.43 0.225246 122.973 0.626185 123.374C1.02713 123.775 1.57092 124.001 2.13793 124.001H121.862C122.429 124.001 122.973 123.775 123.374 123.374C123.775 122.973 124 122.43 124 121.863V76.9661C124 76.3991 123.775 75.8553 123.374 75.4544C122.973 75.0534 122.429 74.8282 121.862 74.8282ZM66.6821 56.9337L66.2759 55.0737C66.1588 54.5994 65.8828 54.1794 65.4938 53.8838C65.1048 53.5881 64.6263 53.4347 64.1379 53.4489H59.8621C59.3737 53.4347 58.8952 53.5881 58.5062 53.8838C58.1172 54.1794 57.8412 54.5994 57.7241 55.0737L57.2538 56.9337L53.2986 49.173H70.7014L66.6821 56.9337ZM63.7103 62.642L62 65.913L60.2897 62.642L61.5297 57.7247H62.4703L63.7103 62.642ZM36.3448 63.5185C36.3141 60.076 37.5316 56.7388 39.7721 54.1249C42.0126 51.511 45.1243 49.7974 48.531 49.3013L56.1848 64.0103L60.0972 71.5144C60.2767 71.8646 60.5492 72.1585 60.885 72.3637C61.2207 72.5689 61.6065 72.6775 62 72.6775C62.3935 72.6775 62.7793 72.5689 63.1151 72.3637C63.4508 72.1585 63.7234 71.8646 63.9028 71.5144L67.8152 64.1385L75.469 49.4296C78.8538 49.9226 81.948 51.6177 84.1857 54.2048C86.4234 56.7918 87.6549 60.098 87.6552 63.5185V74.8282H83.3793V70.5523C83.3793 69.9853 83.1541 69.4415 82.7531 69.0406C82.3522 68.6396 81.8084 68.4144 81.2414 68.4144C80.6744 68.4144 80.1306 68.6396 79.7296 69.0406C79.3287 69.4415 79.1035 69.9853 79.1035 70.5523V74.8282H44.8966V70.5523C44.8966 69.9853 44.6713 69.4415 44.2704 69.0406C43.8694 68.6396 43.3256 68.4144 42.7586 68.4144C42.1916 68.4144 41.6478 68.6396 41.2469 69.0406C40.8459 69.4415 40.6207 69.9853 40.6207 70.5523V74.8282H36.3448V63.5185ZM4.27586 79.104H119.724V83.3799H4.27586V79.104ZM32.069 119.725V104.759H91.931V119.725H32.069ZM119.724 119.725H96.2069V102.621C96.2069 102.054 95.9817 101.51 95.5807 101.11C95.1798 100.709 94.636 100.483 94.069 100.483H29.931C29.364 100.483 28.8202 100.709 28.4193 101.11C28.0183 101.51 27.7931 102.054 27.7931 102.621V119.725H4.27586V87.6558H119.724V119.725Z" fill="#B29152" stroke="white" mask="url(#path-2-inside-1_8404_9531)"/>
</g>
</g>
</svg>
