<svg width="24" height="24" viewBox="0 0 24 24" fill="none" xmlns="http://www.w3.org/2000/svg">
<path d="M17.8147 6.18527C18.0618 6.4323 18.0618 6.83282 17.8147 7.07985L12.8946 12L17.8147 16.9202C18.0618 17.1672 18.0618 17.5677 17.8147 17.8147C17.5677 18.0618 17.1672 18.0618 16.9202 17.8147L12 12.8946L7.07985 17.8147C6.83282 18.0618 6.4323 18.0618 6.18527 17.8147C5.93824 17.5677 5.93824 17.1672 6.18527 16.9202L11.1054 12L6.18527 7.07985C5.93824 6.83282 5.93824 6.4323 6.18527 6.18527C6.4323 5.93824 6.83282 5.93824 7.07985 6.18527L12 11.1054L16.9202 6.18527C17.1672 5.93824 17.5677 5.93824 17.8147 6.18527Z" fill="white"/>
</svg>
