<?xml version="1.0" encoding="UTF-8"?>
<svg
  xmlns="http://www.w3.org/2000/svg"
  width="42"
  height="47"
  viewBox="0 0 42 47"
  fill="none"
>
  <path
    fill-rule="evenodd"
    clip-rule="evenodd"
    d="M31.3718 39.9917C32.0213 41.1379 32.7488 42.2831 33.5542 43.4273L29.8159 46.06C28.8566 44.6869 27.9933 43.3109 27.2258 41.9319C25.0914 42.6811 22.9121 43.078 20.5468 43.078C18.1336 43.078 15.8912 42.6244 13.6998 41.8752C12.9345 43.2482 12.05 44.6431 11.0468 46.06L7.30859 43.4273C8.156 42.2394 8.92343 41.0723 9.61092 39.926C3.80119 36.2606 0 29.9057 0 22.6285C0 15.5812 3.57036 9.33975 9.03534 5.67131C7.9411 3.95499 7.13173 2.9849 7.07776 2.9849L10.5942 0C10.6482 0.122379 11.7423 1.32231 13.1243 3.558C15.4266 2.64163 17.9027 2.12525 20.5468 2.12525C23.1339 2.12525 25.5561 2.64163 27.8584 3.50128C29.1835 1.32231 30.2776 0.0656684 30.3346 0L33.785 2.9849C33.785 2.9849 32.9786 3.95499 31.9474 5.56087C36.3181 8.48012 39.4898 13.0052 40.6409 18.2795H35.6316C34.6484 14.8439 32.469 11.859 29.648 9.85618C28.8957 11.4083 28.2661 13.1813 27.6905 15.1304C27.1889 17.001 26.8611 18.8726 26.7073 20.745H29.5281C29.702 18.2228 30.2776 15.5812 31.6056 13.235C31.6056 13.235 32.6909 14.038 34.4265 18.1691C34.4265 18.1691 32.8108 22.6852 34.2497 28.2998C34.2497 28.2998 32.9217 30.7654 31.141 32.825C31.141 32.825 29.9898 29.6759 29.5821 25.4373H26.6503C26.8801 28.9157 27.7245 32.3543 29.1835 35.7532C32.7568 33.398 35.2239 29.7296 36.0303 25.4373H34.7683V20.745H40.9827C41.0587 21.354 41.0967 21.9818 41.0967 22.6285C41.0967 29.9624 37.1815 36.38 31.3718 39.9917ZM11.6883 35.6875C13.1853 32.2886 14.0476 28.8719 14.2754 25.4373H11.3346C10.936 29.6759 9.73083 32.825 9.73083 32.825C8.00411 30.7654 6.67906 28.2998 6.67906 28.2998C8.06101 22.6852 6.50219 18.1691 6.50219 18.1691C8.17199 14.038 9.32313 13.235 9.32313 13.235C10.5942 15.5812 11.2237 18.2228 11.4005 20.745H14.2215C14.0656 18.8726 13.7188 17.001 13.1812 15.1304C12.6627 13.1813 11.9761 11.462 11.2806 9.90986C7.30859 12.7843 4.72151 17.4199 4.72151 22.6852C4.72151 28.1327 7.48547 32.8817 11.6883 35.6875ZM25.0914 37.6933C20.9545 28.07 21.6979 19.7093 23.3677 13.6977C23.9433 11.5188 24.7497 9.51289 25.5021 7.79656C23.9433 7.28017 22.2735 6.99362 20.4929 6.99362C18.7092 6.99362 16.9855 7.28017 15.3696 7.79656C16.179 9.51289 16.9195 11.5188 17.561 13.6977C19.2217 19.7093 19.9712 28.07 15.8253 37.6933C17.3271 38.0992 18.8771 38.3858 20.4929 38.3858C22.1056 38.3858 23.5985 38.153 25.0914 37.6933Z"
    fill="white"
  />
</svg>
