<svg width="24" height="24" viewBox="0 0 24 24" fill="none" xmlns="http://www.w3.org/2000/svg">
<path d="M12 14.5C12.2761 14.5 12.5 14.7239 12.5 15V18C12.5 18.2761 12.2761 18.5 12 18.5C11.7239 18.5 11.5 18.2761 11.5 18V15C11.5 14.7239 11.7239 14.5 12 14.5Z" fill="white"/>
<path fill-rule="evenodd" clip-rule="evenodd" d="M12 2C15.3137 2 18 4.68629 18 8V16L17.9922 16.3086C17.8316 19.4789 15.2102 22 12 22C8.78979 22 6.16843 19.4789 6.00781 16.3086L6 16V8C6 4.68629 8.68629 2 12 2ZM12 3C9.23858 3 7 5.23858 7 8V16C7 18.7614 9.23858 21 12 21C14.7614 21 17 18.7614 17 16V8C17 5.23858 14.7614 3 12 3Z" fill="white"/>
</svg>
