<svg width="24" height="24" viewBox="0 0 24 24" fill="none" xmlns="http://www.w3.org/2000/svg">
<path fill-rule="evenodd" clip-rule="evenodd" d="M11 2C15.9706 2 20 6.02944 20 11C20 13.3053 19.1315 15.4067 17.7061 16.999L21.8535 21.1465C22.0488 21.3417 22.0488 21.6583 21.8535 21.8535C21.6583 22.0488 21.3417 22.0488 21.1465 21.8535L16.999 17.7061C15.4067 19.1315 13.3053 20 11 20C6.02944 20 2 15.9706 2 11C2 6.02944 6.02944 2 11 2ZM11 3C6.58172 3 3 6.58172 3 11C3 15.4183 6.58172 19 11 19C13.1696 19 15.136 18.1347 16.5771 16.7324C16.5965 16.7019 16.6198 16.6731 16.6465 16.6465C16.6731 16.6198 16.7019 16.5965 16.7324 16.5771C18.1347 15.136 19 13.1696 19 11C19 6.58172 15.4183 3 11 3Z" fill="white"/>
</svg>
