<svg width="124" height="137" viewBox="0 0 124 137" fill="none" xmlns="http://www.w3.org/2000/svg">
<g id="Vector">
<mask id="path-1-inside-1_8404_9539" fill="white">
<path d="M123.912 106.213L115.361 65.4792C114.884 63.1953 112.527 61.7002 110.121 62.1593L99.1204 64.2372C97.9546 64.455 96.95 65.0966 96.2928 66.0384C95.6355 66.9803 95.3937 68.1046 95.6231 69.2113L95.6727 69.4408C94.3023 69.8587 92.8637 70.2119 91.3631 70.4356C92.1506 69.7351 92.9009 69.0052 93.6265 68.2518C93.6451 68.2283 93.6699 68.2106 93.6885 68.1929C93.7567 68.1223 93.8249 68.0458 93.8931 67.9751C93.9861 67.8751 94.0792 67.7809 94.1722 67.6808C94.3768 67.4571 94.5814 67.2335 94.7861 67.0098C94.8357 66.9568 94.8853 66.9038 94.9287 66.8508C95.4682 66.2387 95.9829 65.6147 96.4852 64.979C96.4976 64.9613 96.51 64.9495 96.5224 64.9319C100.646 59.6342 103.344 53.4886 104.398 46.9966C104.404 46.9789 104.404 46.9671 104.404 46.9495C104.466 46.5668 104.522 46.1901 104.571 45.8075C104.577 45.7781 104.577 45.7486 104.584 45.7133C104.683 44.9363 104.757 44.1534 104.813 43.3705C104.819 43.2763 104.826 43.1763 104.832 43.0821C104.85 42.7878 104.863 42.4993 104.875 42.205C104.881 42.0991 104.881 41.9931 104.888 41.8871C104.9 41.5045 104.906 41.1278 104.906 40.7452C104.906 40.2802 104.894 39.8151 104.875 39.3501C104.869 39.2265 104.863 39.1029 104.863 38.9734C104.844 38.5437 104.819 38.1199 104.788 37.696C104.782 37.5901 104.77 37.4841 104.763 37.3841C104.732 37.025 104.695 36.6659 104.658 36.3127C104.639 36.1244 104.615 35.9419 104.59 35.7535C104.553 35.4828 104.515 35.2061 104.472 34.9353C104.416 34.5821 104.36 34.229 104.298 33.8758C104.267 33.7227 104.243 33.5638 104.212 33.4108C103.108 27.6304 100.702 22.15 97.0804 17.2822C97.0246 17.2057 96.9626 17.1351 96.8944 17.0703C89.0996 6.73968 76.3621 0 61.9955 0C55.9619 0 50.2259 1.18905 45.0112 3.33164C44.9306 3.35519 44.8562 3.37873 44.7818 3.41405C38.2149 6.14533 32.4169 10.4542 28.015 15.8579C25.3485 19.1307 23.2402 22.7743 21.7396 26.6299C21.7148 26.6888 21.6961 26.7476 21.6713 26.8065C21.5721 27.0655 21.4791 27.3186 21.3861 27.5776C21.3489 27.6777 21.3117 27.7777 21.2807 27.8778C21.1939 28.125 21.1071 28.3723 21.0264 28.6254C21.0078 28.6784 20.9954 28.7313 20.9768 28.7902C20.8218 29.2729 20.673 29.7615 20.5365 30.25C20.4993 30.3854 20.4621 30.5149 20.4249 30.6503C20.3691 30.8681 20.3071 31.0918 20.2513 31.3155C20.2141 31.4685 20.1769 31.6216 20.1397 31.7746C20.0901 31.9924 20.0343 32.2102 19.9909 32.428C19.9536 32.5869 19.9226 32.7459 19.8916 32.9048C19.8234 33.2285 19.7614 33.5523 19.7056 33.876C19.6622 34.1056 19.6188 34.3411 19.5878 34.5765C19.5816 34.6236 19.5692 34.6648 19.563 34.7119C19.5568 34.7355 19.5568 34.7531 19.5568 34.7767C19.2529 36.7192 19.0979 38.7147 19.0979 40.7336C19.0979 50.5934 22.8805 60.0704 29.6087 67.4407H28.3436C28.2258 66.9463 28.015 66.4695 27.7049 66.0398C27.0414 65.0979 26.0368 64.4622 24.8774 64.2385L13.8767 62.1607C11.4707 61.7074 9.12049 63.1967 8.63679 65.4805L0.0855854 106.214C-0.391893 108.498 1.17697 110.729 3.58293 111.188L14.5836 113.266C14.875 113.319 15.1665 113.348 15.4579 113.348C16.3323 113.348 17.1818 113.107 17.926 112.636C18.8189 112.065 19.4576 111.229 19.7366 110.258L45.4091 134.628C47.0772 136.211 49.2662 137 51.4552 137C53.6441 137 55.8331 136.211 57.5012 134.628C58.5305 133.651 59.2375 132.491 59.6344 131.255L62.8589 134.316C66.1951 137.477 71.6147 137.477 74.9509 134.316C75.9865 133.333 76.6997 132.161 77.0903 130.913C78.6344 132.167 80.5815 132.85 82.6403 132.85C84.9285 132.85 87.0741 132.008 88.6863 130.478C90.4412 128.812 91.2721 126.593 91.1791 124.409C93.4858 124.497 95.8175 123.709 97.5723 122.043C99.7798 119.947 100.561 116.839 99.7241 114.049L104.158 109.84L104.183 109.952C104.412 111.059 105.088 112.012 106.08 112.636C106.824 113.107 107.674 113.348 108.548 113.348C108.84 113.348 109.131 113.319 109.423 113.266L120.423 111.188C122.823 110.729 124.392 108.498 123.914 106.214L123.912 106.213ZM88.4609 37.8951C86.9354 34.4811 84.6721 33.2685 82.4832 32.097C80.7158 31.1493 78.8928 30.1722 77.0201 27.7057C76.3007 26.7521 74.7195 24.3682 75.6558 22.8493C76.1147 22.1076 78.13 20.1357 86.5387 20.1357C88.5975 20.1357 91.0406 20.2534 93.9302 20.5359C96.6215 24.3622 98.5749 28.6945 99.5918 33.3506C99.598 33.3859 99.6104 33.4271 99.6166 33.4625C99.7778 34.2277 99.9204 35.0046 100.032 35.7876C100.057 35.9819 100.088 36.1761 100.113 36.3704C100.137 36.5411 100.156 36.7177 100.175 36.8943C100.212 37.2533 100.249 37.6065 100.28 37.9656C100.286 38.0598 100.293 38.1599 100.299 38.254C100.324 38.566 100.336 38.878 100.355 39.19C100.361 39.3077 100.367 39.4195 100.367 39.5373C100.379 39.9375 100.392 40.3319 100.392 40.7381C100.392 41.0736 100.386 41.4091 100.373 41.7506C100.367 41.833 100.367 41.9213 100.367 42.0037C100.355 42.3098 100.342 42.6159 100.324 42.922C100.324 42.9514 100.317 42.9808 100.317 43.0103C100.293 43.3576 100.268 43.7107 100.23 44.058C100.224 44.0992 100.224 44.1404 100.218 44.1816C100.187 44.5231 100.144 44.8645 100.1 45.2059V45.2177C99.2383 51.8398 96.4789 58.0676 92.1877 63.2539C92.1753 63.2716 92.1567 63.2892 92.1443 63.3069C92.0575 63.407 91.9707 63.507 91.8839 63.6071C87.2207 59.157 84.6534 55.4015 84.2442 52.4347C83.8907 49.88 85.1867 48.0788 86.5509 46.1656C88.0826 44.0053 89.9927 41.327 88.4609 37.8951ZM90.0855 15.9333C80.0584 15.4095 74.0378 16.9694 71.7487 20.6718C70.1179 23.3089 70.6821 26.6995 73.3424 30.2078C75.798 33.4452 78.2661 34.7696 80.2566 35.8352C82.1976 36.8771 83.3694 37.5011 84.2935 39.5672C84.8144 40.7386 84.2997 41.6392 82.799 43.7406C81.1868 46.001 79.1777 48.8088 79.7481 52.9822C80.3062 57.0438 83.2083 61.4645 88.8265 66.7859C87.4437 68.075 85.943 69.264 84.3432 70.353C80.5171 69.682 76.319 67.8925 71.6868 64.2723C68.0655 61.4351 63.582 60.7287 59.7063 62.1886C60.2458 61.2585 60.7357 60.0165 61.176 58.1329C61.2132 57.9798 61.2318 57.815 61.2318 57.6619C61.2132 54.036 62.7696 53.5769 64.9276 52.9411C66.36 52.5173 68.1458 51.9934 68.7722 50.1863C69.4544 48.2202 68.1646 45.9657 66.019 43.1933C65.4857 42.5046 64.9958 41.7688 64.5245 41.0565C62.937 38.6608 61.1388 35.953 57.5422 35.6233C55.068 35.3996 53.8278 34.6697 52.6247 33.9692C50.3489 32.6388 48.2715 31.7441 43.9557 33.3276C41.835 34.1045 41.1962 34.34 38.8026 30.6846C38.5422 30.2843 38.1515 29.5544 38.4368 29.1246C38.8646 28.4948 40.4211 27.9827 42.3 28.2005L42.3992 28.2181C48.5197 29.2836 54.4354 27.3116 59.0613 22.679C59.0985 22.6437 59.1357 22.6025 59.1667 22.5613C61.7897 19.518 62.3416 15.9391 60.7169 12.4896C59.3651 9.62304 56.4754 6.99769 53.1144 5.27875C55.9669 4.63714 58.9372 4.29573 61.9944 4.29573C73.0757 4.29573 83.0721 8.78137 90.0855 15.9333ZM24.5835 32.5561C24.6331 32.3442 24.6889 32.1323 24.7447 31.9204C24.7695 31.8262 24.7881 31.7379 24.8191 31.6437C26.8594 24.174 31.4046 17.4811 37.6305 12.5948C37.7111 12.536 37.7917 12.4771 37.8661 12.4123C38.0273 12.2887 38.1886 12.1651 38.356 12.0415C38.573 11.8826 38.7839 11.7236 39.0071 11.5706C39.0257 11.5588 39.0443 11.5471 39.0629 11.5294C41.2519 9.98134 43.6145 8.64501 46.1259 7.55611C50.2682 7.95638 55.0616 10.9761 56.5933 14.243C57.511 16.1915 57.2258 18.0045 55.7252 19.7763C52.1967 23.2787 47.7569 24.7738 43.2239 23.991C43.075 23.9674 42.9696 23.9498 42.9076 23.9439C39.3544 23.5201 36.105 24.6385 34.6355 26.8105C33.9348 27.8465 33.048 30.0245 34.9703 32.9559C37.7422 37.1823 40.3714 39.2602 45.5989 37.3353C48.16 36.3934 48.7305 36.729 50.2559 37.6237C51.6635 38.4478 53.5921 39.578 57.1204 39.9017C58.4412 40.0194 59.297 41.2261 60.7046 43.3453C61.2193 44.1164 61.7464 44.917 62.3789 45.7351C63.5633 47.2714 64.0656 48.1545 64.2826 48.6254C64.0593 48.696 63.8113 48.7725 63.5943 48.8373C61.2069 49.5436 56.798 50.8445 56.7174 57.4314C56.0973 59.9802 55.4896 60.5983 54.8508 61.2517C53.8028 62.323 52.9533 63.3531 52.3704 66.0609C52.3146 66.2316 52.1286 66.4199 51.9735 66.5141C51.2728 65.8372 51.1364 65.0072 50.9194 63.3885C50.6031 61.0222 50.1628 57.7787 46.7708 53.8996C45.5678 52.4103 45.5616 51.2213 45.5492 49.7144C45.5306 47.6836 45.5058 44.8994 41.5991 42.7508C38.0521 40.8024 36.1299 38.9129 34.4246 37.2412C31.9689 34.8278 29.7986 32.6911 24.5712 32.6852C24.565 32.644 24.5773 32.6032 24.5835 32.5561ZM23.61 40.7324C23.61 39.4668 23.6782 38.2247 23.8146 36.9886C27.6469 36.7767 28.794 37.901 31.1566 40.226C32.9673 42.0037 35.2245 44.2228 39.3172 46.4714C40.9853 47.3897 40.9914 47.9842 41.01 49.7502C41.0286 51.5044 41.0472 53.9118 43.199 56.5607C43.2176 56.5842 43.2362 56.6019 43.2548 56.6254C45.8282 59.5568 46.1321 61.782 46.4173 63.9364C46.5724 65.1019 46.7336 66.2968 47.2545 67.4446H35.8817C28.0746 60.5517 23.61 50.8694 23.61 40.7324ZM15.3874 109.032L4.52941 106.977L13.0497 66.3841L23.9076 68.4385L15.3874 109.032ZM94.3638 118.997C92.7949 120.487 90.2462 120.487 88.6775 118.997L69.9628 101.232C69.0761 100.391 67.6437 100.391 66.7631 101.232C65.8764 102.074 65.8764 103.434 66.7631 104.27L85.4714 122.035C87.0403 123.524 87.0403 125.943 85.4714 127.433C84.7149 128.151 83.7041 128.545 82.6313 128.545C81.5523 128.545 80.5416 128.151 79.7912 127.433L60.0161 108.661C59.1294 107.819 57.697 107.819 56.8164 108.661C55.9297 109.503 55.9297 110.862 56.8164 111.698L71.7422 125.867C73.3111 127.356 73.3111 129.775 71.7422 131.265C70.1734 132.754 67.6247 132.754 66.0559 131.265L50.0701 116.09C49.1834 115.248 47.751 115.248 46.8705 116.09C45.9837 116.932 45.9837 118.291 46.8705 119.127L54.2993 126.179C55.0558 126.897 55.4713 127.851 55.4713 128.875C55.4713 129.899 55.0558 130.859 54.2993 131.571C53.5428 132.289 52.5382 132.684 51.4592 132.684C50.3802 132.684 49.3694 132.289 48.619 131.571L20.8193 105.182L27.839 71.724H46.7711L41.8041 75.6621C39.2554 77.681 38.1578 80.4477 38.8028 83.2378L43.2799 102.698C43.4101 103.263 43.776 103.758 44.2969 104.064C44.8178 104.37 45.4441 104.464 46.0333 104.329C58.2493 101.474 59.0306 93.015 59.7251 85.557C59.7686 85.1037 59.812 84.6446 59.8554 84.1854C60.7979 84.1207 63.8736 85.0036 68.3135 88.8356L95.1957 114.759C95.853 116.184 95.5234 117.891 94.3638 118.997ZM97.086 110.456L71.4817 85.7986C71.4507 85.7692 71.4259 85.7457 71.3949 85.7162C66.0682 81.1072 61.2066 79.1 58.0627 80.2125C56.5435 80.7541 55.5576 81.9785 55.3529 83.5796C55.3529 83.5972 55.3467 83.6149 55.3467 83.6325C55.2971 84.1564 55.2475 84.6803 55.1979 85.1984C54.5654 91.9912 54.1003 97.0712 47.1676 99.5258L43.2175 82.338C42.864 80.8075 43.8252 79.6656 44.6933 78.9768L59.4456 67.2864C62.1121 65.1733 65.8761 65.2968 68.8092 67.5925C79.9586 76.328 89.3287 75.804 96.5644 73.6791L103.088 104.759L97.086 110.456ZM108.601 109.032L100.081 68.4385L110.939 66.3841L119.459 106.977L108.601 109.032Z"/>
</mask>
<path d="M123.912 106.213L115.361 65.4792C114.884 63.1953 112.527 61.7002 110.121 62.1593L99.1204 64.2372C97.9546 64.455 96.95 65.0966 96.2928 66.0384C95.6355 66.9803 95.3937 68.1046 95.6231 69.2113L95.6727 69.4408C94.3023 69.8587 92.8637 70.2119 91.3631 70.4356C92.1506 69.7351 92.9009 69.0052 93.6265 68.2518C93.6451 68.2283 93.6699 68.2106 93.6885 68.1929C93.7567 68.1223 93.8249 68.0458 93.8931 67.9751C93.9861 67.8751 94.0792 67.7809 94.1722 67.6808C94.3768 67.4571 94.5814 67.2335 94.7861 67.0098C94.8357 66.9568 94.8853 66.9038 94.9287 66.8508C95.4682 66.2387 95.9829 65.6147 96.4852 64.979C96.4976 64.9613 96.51 64.9495 96.5224 64.9319C100.646 59.6342 103.344 53.4886 104.398 46.9966C104.404 46.9789 104.404 46.9671 104.404 46.9495C104.466 46.5668 104.522 46.1901 104.571 45.8075C104.577 45.7781 104.577 45.7486 104.584 45.7133C104.683 44.9363 104.757 44.1534 104.813 43.3705C104.819 43.2763 104.826 43.1763 104.832 43.0821C104.85 42.7878 104.863 42.4993 104.875 42.205C104.881 42.0991 104.881 41.9931 104.888 41.8871C104.9 41.5045 104.906 41.1278 104.906 40.7452C104.906 40.2802 104.894 39.8151 104.875 39.3501C104.869 39.2265 104.863 39.1029 104.863 38.9734C104.844 38.5437 104.819 38.1199 104.788 37.696C104.782 37.5901 104.77 37.4841 104.763 37.3841C104.732 37.025 104.695 36.6659 104.658 36.3127C104.639 36.1244 104.615 35.9419 104.59 35.7535C104.553 35.4828 104.515 35.2061 104.472 34.9353C104.416 34.5821 104.36 34.229 104.298 33.8758C104.267 33.7227 104.243 33.5638 104.212 33.4108C103.108 27.6304 100.702 22.15 97.0804 17.2822C97.0246 17.2057 96.9626 17.1351 96.8944 17.0703C89.0996 6.73968 76.3621 0 61.9955 0C55.9619 0 50.2259 1.18905 45.0112 3.33164C44.9306 3.35519 44.8562 3.37873 44.7818 3.41405C38.2149 6.14533 32.4169 10.4542 28.015 15.8579C25.3485 19.1307 23.2402 22.7743 21.7396 26.6299C21.7148 26.6888 21.6961 26.7476 21.6713 26.8065C21.5721 27.0655 21.4791 27.3186 21.3861 27.5776C21.3489 27.6777 21.3117 27.7777 21.2807 27.8778C21.1939 28.125 21.1071 28.3723 21.0264 28.6254C21.0078 28.6784 20.9954 28.7313 20.9768 28.7902C20.8218 29.2729 20.673 29.7615 20.5365 30.25C20.4993 30.3854 20.4621 30.5149 20.4249 30.6503C20.3691 30.8681 20.3071 31.0918 20.2513 31.3155C20.2141 31.4685 20.1769 31.6216 20.1397 31.7746C20.0901 31.9924 20.0343 32.2102 19.9909 32.428C19.9536 32.5869 19.9226 32.7459 19.8916 32.9048C19.8234 33.2285 19.7614 33.5523 19.7056 33.876C19.6622 34.1056 19.6188 34.3411 19.5878 34.5765C19.5816 34.6236 19.5692 34.6648 19.563 34.7119C19.5568 34.7355 19.5568 34.7531 19.5568 34.7767C19.2529 36.7192 19.0979 38.7147 19.0979 40.7336C19.0979 50.5934 22.8805 60.0704 29.6087 67.4407H28.3436C28.2258 66.9463 28.015 66.4695 27.7049 66.0398C27.0414 65.0979 26.0368 64.4622 24.8774 64.2385L13.8767 62.1607C11.4707 61.7074 9.12049 63.1967 8.63679 65.4805L0.0855854 106.214C-0.391893 108.498 1.17697 110.729 3.58293 111.188L14.5836 113.266C14.875 113.319 15.1665 113.348 15.4579 113.348C16.3323 113.348 17.1818 113.107 17.926 112.636C18.8189 112.065 19.4576 111.229 19.7366 110.258L45.4091 134.628C47.0772 136.211 49.2662 137 51.4552 137C53.6441 137 55.8331 136.211 57.5012 134.628C58.5305 133.651 59.2375 132.491 59.6344 131.255L62.8589 134.316C66.1951 137.477 71.6147 137.477 74.9509 134.316C75.9865 133.333 76.6997 132.161 77.0903 130.913C78.6344 132.167 80.5815 132.85 82.6403 132.85C84.9285 132.85 87.0741 132.008 88.6863 130.478C90.4412 128.812 91.2721 126.593 91.1791 124.409C93.4858 124.497 95.8175 123.709 97.5723 122.043C99.7798 119.947 100.561 116.839 99.7241 114.049L104.158 109.84L104.183 109.952C104.412 111.059 105.088 112.012 106.08 112.636C106.824 113.107 107.674 113.348 108.548 113.348C108.84 113.348 109.131 113.319 109.423 113.266L120.423 111.188C122.823 110.729 124.392 108.498 123.914 106.214L123.912 106.213ZM88.4609 37.8951C86.9354 34.4811 84.6721 33.2685 82.4832 32.097C80.7158 31.1493 78.8928 30.1722 77.0201 27.7057C76.3007 26.7521 74.7195 24.3682 75.6558 22.8493C76.1147 22.1076 78.13 20.1357 86.5387 20.1357C88.5975 20.1357 91.0406 20.2534 93.9302 20.5359C96.6215 24.3622 98.5749 28.6945 99.5918 33.3506C99.598 33.3859 99.6104 33.4271 99.6166 33.4625C99.7778 34.2277 99.9204 35.0046 100.032 35.7876C100.057 35.9819 100.088 36.1761 100.113 36.3704C100.137 36.5411 100.156 36.7177 100.175 36.8943C100.212 37.2533 100.249 37.6065 100.28 37.9656C100.286 38.0598 100.293 38.1599 100.299 38.254C100.324 38.566 100.336 38.878 100.355 39.19C100.361 39.3077 100.367 39.4195 100.367 39.5373C100.379 39.9375 100.392 40.3319 100.392 40.7381C100.392 41.0736 100.386 41.4091 100.373 41.7506C100.367 41.833 100.367 41.9213 100.367 42.0037C100.355 42.3098 100.342 42.6159 100.324 42.922C100.324 42.9514 100.317 42.9808 100.317 43.0103C100.293 43.3576 100.268 43.7107 100.23 44.058C100.224 44.0992 100.224 44.1404 100.218 44.1816C100.187 44.5231 100.144 44.8645 100.1 45.2059V45.2177C99.2383 51.8398 96.4789 58.0676 92.1877 63.2539C92.1753 63.2716 92.1567 63.2892 92.1443 63.3069C92.0575 63.407 91.9707 63.507 91.8839 63.6071C87.2207 59.157 84.6534 55.4015 84.2442 52.4347C83.8907 49.88 85.1867 48.0788 86.5509 46.1656C88.0826 44.0053 89.9927 41.327 88.4609 37.8951ZM90.0855 15.9333C80.0584 15.4095 74.0378 16.9694 71.7487 20.6718C70.1179 23.3089 70.6821 26.6995 73.3424 30.2078C75.798 33.4452 78.2661 34.7696 80.2566 35.8352C82.1976 36.8771 83.3694 37.5011 84.2935 39.5672C84.8144 40.7386 84.2997 41.6392 82.799 43.7406C81.1868 46.001 79.1777 48.8088 79.7481 52.9822C80.3062 57.0438 83.2083 61.4645 88.8265 66.7859C87.4437 68.075 85.943 69.264 84.3432 70.353C80.5171 69.682 76.319 67.8925 71.6868 64.2723C68.0655 61.4351 63.582 60.7287 59.7063 62.1886C60.2458 61.2585 60.7357 60.0165 61.176 58.1329C61.2132 57.9798 61.2318 57.815 61.2318 57.6619C61.2132 54.036 62.7696 53.5769 64.9276 52.9411C66.36 52.5173 68.1458 51.9934 68.7722 50.1863C69.4544 48.2202 68.1646 45.9657 66.019 43.1933C65.4857 42.5046 64.9958 41.7688 64.5245 41.0565C62.937 38.6608 61.1388 35.953 57.5422 35.6233C55.068 35.3996 53.8278 34.6697 52.6247 33.9692C50.3489 32.6388 48.2715 31.7441 43.9557 33.3276C41.835 34.1045 41.1962 34.34 38.8026 30.6846C38.5422 30.2843 38.1515 29.5544 38.4368 29.1246C38.8646 28.4948 40.4211 27.9827 42.3 28.2005L42.3992 28.2181C48.5197 29.2836 54.4354 27.3116 59.0613 22.679C59.0985 22.6437 59.1357 22.6025 59.1667 22.5613C61.7897 19.518 62.3416 15.9391 60.7169 12.4896C59.3651 9.62304 56.4754 6.99769 53.1144 5.27875C55.9669 4.63714 58.9372 4.29573 61.9944 4.29573C73.0757 4.29573 83.0721 8.78137 90.0855 15.9333ZM24.5835 32.5561C24.6331 32.3442 24.6889 32.1323 24.7447 31.9204C24.7695 31.8262 24.7881 31.7379 24.8191 31.6437C26.8594 24.174 31.4046 17.4811 37.6305 12.5948C37.7111 12.536 37.7917 12.4771 37.8661 12.4123C38.0273 12.2887 38.1886 12.1651 38.356 12.0415C38.573 11.8826 38.7839 11.7236 39.0071 11.5706C39.0257 11.5588 39.0443 11.5471 39.0629 11.5294C41.2519 9.98134 43.6145 8.64501 46.1259 7.55611C50.2682 7.95638 55.0616 10.9761 56.5933 14.243C57.511 16.1915 57.2258 18.0045 55.7252 19.7763C52.1967 23.2787 47.7569 24.7738 43.2239 23.991C43.075 23.9674 42.9696 23.9498 42.9076 23.9439C39.3544 23.5201 36.105 24.6385 34.6355 26.8105C33.9348 27.8465 33.048 30.0245 34.9703 32.9559C37.7422 37.1823 40.3714 39.2602 45.5989 37.3353C48.16 36.3934 48.7305 36.729 50.2559 37.6237C51.6635 38.4478 53.5921 39.578 57.1204 39.9017C58.4412 40.0194 59.297 41.2261 60.7046 43.3453C61.2193 44.1164 61.7464 44.917 62.3789 45.7351C63.5633 47.2714 64.0656 48.1545 64.2826 48.6254C64.0593 48.696 63.8113 48.7725 63.5943 48.8373C61.2069 49.5436 56.798 50.8445 56.7174 57.4314C56.0973 59.9802 55.4896 60.5983 54.8508 61.2517C53.8028 62.323 52.9533 63.3531 52.3704 66.0609C52.3146 66.2316 52.1286 66.4199 51.9735 66.5141C51.2728 65.8372 51.1364 65.0072 50.9194 63.3885C50.6031 61.0222 50.1628 57.7787 46.7708 53.8996C45.5678 52.4103 45.5616 51.2213 45.5492 49.7144C45.5306 47.6836 45.5058 44.8994 41.5991 42.7508C38.0521 40.8024 36.1299 38.9129 34.4246 37.2412C31.9689 34.8278 29.7986 32.6911 24.5712 32.6852C24.565 32.644 24.5773 32.6032 24.5835 32.5561ZM23.61 40.7324C23.61 39.4668 23.6782 38.2247 23.8146 36.9886C27.6469 36.7767 28.794 37.901 31.1566 40.226C32.9673 42.0037 35.2245 44.2228 39.3172 46.4714C40.9853 47.3897 40.9914 47.9842 41.01 49.7502C41.0286 51.5044 41.0472 53.9118 43.199 56.5607C43.2176 56.5842 43.2362 56.6019 43.2548 56.6254C45.8282 59.5568 46.1321 61.782 46.4173 63.9364C46.5724 65.1019 46.7336 66.2968 47.2545 67.4446H35.8817C28.0746 60.5517 23.61 50.8694 23.61 40.7324ZM15.3874 109.032L4.52941 106.977L13.0497 66.3841L23.9076 68.4385L15.3874 109.032ZM94.3638 118.997C92.7949 120.487 90.2462 120.487 88.6775 118.997L69.9628 101.232C69.0761 100.391 67.6437 100.391 66.7631 101.232C65.8764 102.074 65.8764 103.434 66.7631 104.27L85.4714 122.035C87.0403 123.524 87.0403 125.943 85.4714 127.433C84.7149 128.151 83.7041 128.545 82.6313 128.545C81.5523 128.545 80.5416 128.151 79.7912 127.433L60.0161 108.661C59.1294 107.819 57.697 107.819 56.8164 108.661C55.9297 109.503 55.9297 110.862 56.8164 111.698L71.7422 125.867C73.3111 127.356 73.3111 129.775 71.7422 131.265C70.1734 132.754 67.6247 132.754 66.0559 131.265L50.0701 116.09C49.1834 115.248 47.751 115.248 46.8705 116.09C45.9837 116.932 45.9837 118.291 46.8705 119.127L54.2993 126.179C55.0558 126.897 55.4713 127.851 55.4713 128.875C55.4713 129.899 55.0558 130.859 54.2993 131.571C53.5428 132.289 52.5382 132.684 51.4592 132.684C50.3802 132.684 49.3694 132.289 48.619 131.571L20.8193 105.182L27.839 71.724H46.7711L41.8041 75.6621C39.2554 77.681 38.1578 80.4477 38.8028 83.2378L43.2799 102.698C43.4101 103.263 43.776 103.758 44.2969 104.064C44.8178 104.37 45.4441 104.464 46.0333 104.329C58.2493 101.474 59.0306 93.015 59.7251 85.557C59.7686 85.1037 59.812 84.6446 59.8554 84.1854C60.7979 84.1207 63.8736 85.0036 68.3135 88.8356L95.1957 114.759C95.853 116.184 95.5234 117.891 94.3638 118.997ZM97.086 110.456L71.4817 85.7986C71.4507 85.7692 71.4259 85.7457 71.3949 85.7162C66.0682 81.1072 61.2066 79.1 58.0627 80.2125C56.5435 80.7541 55.5576 81.9785 55.3529 83.5796C55.3529 83.5972 55.3467 83.6149 55.3467 83.6325C55.2971 84.1564 55.2475 84.6803 55.1979 85.1984C54.5654 91.9912 54.1003 97.0712 47.1676 99.5258L43.2175 82.338C42.864 80.8075 43.8252 79.6656 44.6933 78.9768L59.4456 67.2864C62.1121 65.1733 65.8761 65.2968 68.8092 67.5925C79.9586 76.328 89.3287 75.804 96.5644 73.6791L103.088 104.759L97.086 110.456ZM108.601 109.032L100.081 68.4385L110.939 66.3841L119.459 106.977L108.601 109.032Z" fill="#B29152" stroke="white" mask="url(#path-1-inside-1_8404_9539)"/>
</g>
</svg>
