<svg width="124" height="105" viewBox="0 0 124 105" fill="none" xmlns="http://www.w3.org/2000/svg">
<g id="Group">
<path id="Vector" d="M42.9126 104.212C41.9002 104.212 41.0748 103.413 41.0233 102.394L40.5977 91.0768C35.5293 87.943 14.631 75.014 11.7537 72.5386C10.9992 71.8809 10.3608 71.1006 9.89013 70.2043C9.89013 70.1785 9.86434 70.1333 9.845 70.1075L0.694752 50.0589C-0.717436 47.486 0.0821653 44.2812 2.55831 42.7722C3.82863 41.9919 5.31824 41.7598 6.75623 42.1338C8.1942 42.5143 9.40011 43.4041 10.1288 44.7067L20.2913 62.7497C20.2913 62.7497 20.3171 62.7755 20.3364 62.7948C20.3815 62.8206 20.4073 62.8399 20.4525 62.8915C20.4976 62.9173 20.4976 62.9367 20.5234 62.9367L39.3389 72.6543C39.5969 72.7962 39.9515 72.6801 40.0934 72.3964C40.2353 72.1126 40.1192 71.7838 39.8355 71.6419L33.3291 68.3403L27.4546 65.3226C25.9715 64.5681 24.8624 63.2462 24.3916 61.6405C23.8951 60.0349 24.0821 58.339 24.9075 56.8752C26.5325 53.9735 30.1436 52.916 33.1356 54.4441L48.9598 62.5562C49.5466 62.8657 50.0947 63.2655 50.5654 63.7362C53.796 66.5929 62.0951 82.6228 63.7459 85.8352C63.8877 86.0931 63.9587 86.4026 63.9587 86.6863V102.343C63.9587 103.381 63.1075 104.232 62.0694 104.232C61.0312 104.232 60.18 103.381 60.18 102.343V87.1571C56.1692 79.3741 49.8949 68.0577 48.0571 66.567C47.9862 66.5219 47.941 66.451 47.8701 66.3994C47.6831 66.1866 47.4703 66.0189 47.2124 65.9028L31.3882 57.7908C30.2082 57.204 28.7702 57.6038 28.1576 58.6871C27.8481 59.2546 27.7772 59.9123 27.9448 60.5249C28.1318 61.1375 28.5574 61.6598 29.1249 61.9371L34.9993 64.9549L41.4864 68.2564C43.6079 69.3397 44.4591 71.9385 43.3757 74.0599C42.2924 76.1815 39.6936 77.0326 37.5722 75.9492L18.7567 66.2316C18.4278 66.0639 18.1892 65.8769 17.9764 65.7157C17.8088 65.5739 17.3638 65.2192 17.0543 64.7033C17.0543 64.7033 17.0285 64.6582 17.0092 64.6324L6.82076 46.5184C6.60796 46.138 6.23396 45.8607 5.78257 45.7382C5.33764 45.6221 4.88625 45.693 4.48645 45.9252C3.732 46.3959 3.49341 47.4341 3.97058 48.2336C3.97058 48.2788 4.01572 48.3304 4.04151 48.3755L13.2175 68.4423C13.4754 68.8872 13.785 69.2935 14.1848 69.6482C16.6159 71.7438 36.0905 83.8668 43.4018 88.3745C43.9435 88.7034 44.2723 89.2709 44.2981 89.9092L44.7431 102.245C44.7882 103.283 43.9628 104.154 42.9246 104.205H42.8537H42.8988L42.9126 104.212Z" fill="#B29152"/>
<path id="Vector_2" d="M81.2197 104.211H81.1487C80.1105 104.166 79.3109 103.289 79.3302 102.251L79.7752 89.9149C79.7752 89.2765 80.1298 88.709 80.6715 88.3802C87.9839 83.8727 107.464 71.7569 109.889 69.6538C110.288 69.3249 110.598 68.9251 110.856 68.4479L120.032 48.3811C120.032 48.336 120.077 48.2844 120.103 48.2393C120.573 47.4397 120.341 46.3757 119.587 45.9308C119.187 45.6922 118.736 45.6213 118.291 45.7438C117.846 45.8599 117.491 46.1436 117.253 46.5241L107.064 64.638C107.064 64.638 107.064 64.6832 107.019 64.709C106.709 65.2055 106.29 65.5795 106.097 65.7213C105.91 65.889 105.652 66.076 105.317 66.2372L86.5193 75.9548C84.3719 77.0381 81.7797 76.1934 80.6965 74.0655C79.6132 71.9439 80.4579 69.326 82.5858 68.2621L89.0922 64.9605L94.9666 61.9427C95.5341 61.6332 95.9597 61.1431 96.1467 60.5305C96.3337 59.9179 96.2627 59.2602 95.9339 58.6927C95.3213 57.5836 93.8575 57.1838 92.7033 57.7964L76.8791 65.9085C76.6405 66.0245 76.4342 66.1922 76.2214 66.405C76.1763 66.4759 76.1053 66.5211 76.0344 66.5726C74.1966 68.0816 67.9223 79.379 63.9114 87.1628V102.349C63.9114 103.387 63.0602 104.238 62.0221 104.238C60.984 104.238 60.1328 103.387 60.1328 102.349V86.692C60.1328 86.3824 60.2037 86.1052 60.3456 85.8408C61.9964 82.636 70.2953 66.5729 73.5261 63.7419C73.9968 63.2453 74.5384 62.8455 75.1317 62.5618L90.9559 54.4498C93.9479 52.915 97.5847 53.979 99.184 56.8549C100.009 58.3187 100.196 60.0147 99.6999 61.6202C99.2033 63.2259 98.12 64.5413 96.6368 65.3023L90.7624 68.3201L84.256 71.6216C83.9723 71.7635 83.8756 72.0923 84.0174 72.3761C84.1593 72.6598 84.4882 72.7565 84.7719 72.6146L103.569 62.897L103.685 62.8003C103.685 62.7745 103.73 62.7294 103.73 62.7294L113.874 44.6864C114.628 43.3903 115.808 42.4681 117.246 42.1135C118.684 41.7589 120.167 41.9716 121.444 42.7519C123.92 44.2866 124.72 47.4657 123.308 50.0386L114.157 70.0872C114.157 70.113 114.157 70.1582 114.112 70.184C113.642 71.0803 113.029 71.8605 112.249 72.5183C109.347 75.0202 88.4809 87.9428 83.4047 91.0565L82.9792 102.373C82.934 103.386 82.1086 104.192 81.0898 104.192H81.1866L81.2197 104.211Z" fill="#B29152"/>
<path id="Vector_3" d="M62.3758 23.6265C55.8694 23.6265 50.5625 18.3196 50.5625 11.8133C50.5625 5.30691 55.8694 0 62.3758 0C68.8821 0 74.189 5.30691 74.189 11.8133C74.189 18.3196 68.8821 23.6265 62.3758 23.6265ZM62.3758 3.79744C57.9393 3.79744 54.3347 7.40851 54.3347 11.8385C54.3347 16.275 57.9458 19.8796 62.3758 19.8796C66.8122 19.8796 70.4169 16.2686 70.4169 11.8385C70.4169 7.40208 66.8058 3.79744 62.3758 3.79744Z" fill="#B29152"/>
<path id="Vector_4" d="M43.9518 53.9797C42.9136 53.9797 42.0625 53.1285 42.0625 52.0904V35.6084C42.0625 29.4502 44.8224 23.7434 49.6328 19.926L52.8893 17.3338C53.6889 16.6954 54.8946 16.818 55.5332 17.6433C56.1715 18.4429 56.049 19.6487 55.2236 20.2872L51.9671 22.8794C48.053 25.9939 45.8089 30.6368 45.8089 35.6407V52.1227C45.8089 53.1609 44.9578 54.0121 43.9196 54.0121L43.9518 53.9797Z" fill="#B29152"/>
<path id="Vector_5" d="M80.1808 53.9818C79.1426 53.9818 78.2914 53.1306 78.2914 52.0925V35.6105C78.2914 30.6131 76.0538 25.9637 72.1332 22.8492L68.8767 20.257C68.0771 19.6186 67.9353 18.4191 68.5672 17.6131C69.2056 16.8135 70.405 16.6716 71.2111 17.3036L74.4676 19.8958C79.2781 23.7132 82.0379 29.4458 82.0379 35.5781V52.0601C82.0379 53.0983 81.1867 53.9494 80.1486 53.9494L80.1808 53.9818Z" fill="#B29152"/>
<path id="Vector_6" d="M37.1358 24.4317C32.0158 24.4317 27.8438 20.2597 27.8438 15.1397C27.8438 10.0197 32.0158 5.84766 37.1358 5.84766C42.2558 5.84766 46.4278 10.0197 46.4278 15.1397C46.4278 20.2597 42.2558 24.4317 37.1358 24.4317ZM37.1358 9.61984C34.0921 9.61984 31.6159 12.096 31.6159 15.1397C31.6159 18.1834 34.0921 20.6596 37.1358 20.6596C40.1795 20.6596 42.6557 18.1834 42.6557 15.1397C42.6557 12.096 40.1795 9.61984 37.1358 9.61984Z" fill="#B29152"/>
<path id="Vector_7" d="M23.3893 46.9513C22.3511 46.9513 21.5 46.1001 21.5 45.062V32.9197C21.5 28.1802 23.6216 23.7954 27.3228 20.8484L29.7539 18.9139C30.5535 18.2755 31.7592 18.398 32.3978 19.2234C33.0361 20.023 32.9136 21.2288 32.0882 21.8673L29.6571 23.8018C26.8521 26.0395 25.2464 29.3668 25.2464 32.9521V45.0944C25.2464 46.1326 24.3953 46.9837 23.3571 46.9837H23.3829L23.3893 46.9513Z" fill="#B29152"/>
<path id="Vector_8" d="M87.8936 24.4317C82.7736 24.4317 78.6016 20.2597 78.6016 15.1397C78.6016 10.0197 82.7736 5.84766 87.8936 5.84766C93.0136 5.84766 97.1857 10.0197 97.1857 15.1397C97.1857 20.2597 93.0136 24.4317 87.8936 24.4317ZM87.8936 9.61984C84.8499 9.61984 82.3737 12.096 82.3737 15.1397C82.3737 18.1834 84.8499 20.6596 87.8936 20.6596C90.9373 20.6596 93.4135 18.1834 93.4135 15.1397C93.4135 12.096 90.9373 9.61984 87.8936 9.61984Z" fill="#B29152"/>
<path id="Vector_9" d="M101.17 46.9534C100.132 46.9534 99.281 46.1022 99.281 45.0641V32.9218C99.281 29.3365 97.6754 26.0092 94.8703 23.7716L92.4392 21.837C91.6396 21.1986 91.4978 19.9992 92.1297 19.1932C92.7681 18.3936 93.9675 18.2517 94.7736 18.8836L97.2047 20.8182C100.906 23.7651 103.027 28.1757 103.027 32.8895V45.0317C103.027 46.0699 102.176 46.921 101.138 46.921L101.17 46.9534Z" fill="#B29152"/>
</g>
</svg>
