<svg width="124" height="127" viewBox="0 0 124 127" fill="none" xmlns="http://www.w3.org/2000/svg">
<path id="Vector" fill-rule="evenodd" clip-rule="evenodd" d="M64.7267 12.771H38.4157V21.8988H53.582C54.2994 21.8988 54.8839 22.4808 54.8839 23.1952L54.8786 46.2655H58.6517C58.6517 45.0114 58.5985 35.2382 58.6889 34.8677C60.1982 28.5497 64.1254 23.2212 69.2323 19.9358V12.7712L64.7267 12.771ZM105.041 72.1097V67.8288C100.391 66.8182 96.8886 65.1038 94.5344 62.4898C91.973 59.6429 90.8303 55.8119 91.1068 50.748C91.144 50.0813 91.6913 49.5416 92.3716 49.5257C98.4776 49.3722 104.015 50.9808 107.044 55.9918C109.175 52.1395 113.533 49.6262 122.433 48.0757C123.209 47.9381 123.943 48.5043 123.958 49.3721C124.229 54.8275 123.167 58.992 120.993 62.0133C118.639 65.2782 115.041 67.1408 110.455 67.7968C108.765 68.0402 108.393 65.4792 110.088 65.2358C118.097 64.0982 121.434 58.9813 121.402 50.9122C112.862 52.6371 109.599 55.5845 108.361 60.2781C110.498 57.6641 113.319 55.8015 116.747 54.648C118.368 54.103 119.202 56.5529 117.581 57.098C115.084 57.9393 113.006 59.1882 111.359 60.8284C109.716 62.4635 108.478 64.5059 107.644 66.9612C107.569 67.4004 107.681 72.6706 107.644 73.5279C107.639 75.2794 107.548 77.0308 107.367 78.7717C104.423 107.96 78.4894 129.262 49.2888 126.808C21.4161 124.463 0 101.218 0 73.4061C0 72.6918 0.584568 72.1097 1.30198 72.1097H2.14694C-0.223222 68.4639 3.22573 63.1407 8.07235 64.6647C9.12988 61.9502 12.3184 60.8707 14.8799 62.22C15.8949 60.6802 17.5529 59.6484 19.4342 59.5266L19.4289 23.196C19.4289 22.4817 20.0135 21.8996 20.7309 21.8996H35.8128V11.4755C35.8128 10.7611 36.3973 10.1791 37.1147 10.1791H41.6212V7.47514L38.9535 7.95137C37.2689 8.25299 36.8119 5.70245 38.4965 5.40091L68.697 0.0247354C70.3816 -0.276882 70.8386 2.27366 69.154 2.57519L66.0292 3.1308V10.1843H70.5357C71.2531 10.1843 71.8376 10.7663 71.8376 11.4807V18.46C76.4079 16.2111 81.7115 15.3433 87.0896 16.2852C87.7273 16.3646 88.2215 16.9096 88.2215 17.571V72.1157L105.041 72.1097ZM105.089 65.1884C105.104 64.6963 105.131 64.2201 105.163 63.7544C104.275 62.3998 103.191 61.2515 101.911 60.3097C100.593 59.3413 99.0569 58.5847 97.3032 58.0343C95.6665 57.5263 96.4423 55.0553 98.0738 55.5632C101.007 56.4787 103.574 57.9761 105.604 60.135C105.657 59.8652 105.716 59.6059 105.78 59.3466C104.865 56.8597 103.335 55.0658 101.284 53.8912C99.2483 52.7324 96.6762 52.1557 93.663 52.1027C93.6258 59.8282 97.6593 63.4528 105.089 65.1884ZM8.33793 67.6225C5.16538 65.6858 3.30538 68.7496 4.21416 70.5169C4.67649 71.4112 5.87757 72.1097 8.09359 72.1097H26.6514C30.1163 72.1044 29.9409 68.7601 28.5379 67.4426C27.8418 66.7918 26.7258 66.5325 25.2697 67.1728C24.3397 67.5802 23.3353 66.8023 23.4576 65.8287C23.8243 62.8497 20.083 61.0612 17.8564 62.765C17.2772 63.2095 16.8308 63.8445 16.5969 64.5906C16.2993 65.5537 15.0611 65.8129 14.3968 65.0827C12.9035 63.4583 10.3579 64.2467 10.3102 66.5378C10.2889 67.5485 9.18287 68.1358 8.33793 67.6225ZM22.0321 59.9023V24.4915H52.2748V46.2655H43.1821C42.4647 46.2655 41.8801 46.8475 41.8801 47.5619V72.1087H31.4802C33.3455 68.5899 30.6034 63.5154 25.9587 64.2775C25.5283 62.235 24.0037 60.6062 22.0321 59.9023ZM26.6343 74.7028H2.61972C2.70474 78.1263 3.12988 81.4705 3.86324 84.693C8.97552 80.6556 16.729 79.7403 22.5911 81.0684C25.9337 81.825 29.5899 83.5394 30.8653 86.6456C32.0291 89.4764 30.8919 92.6566 27.7564 95.6781C26.8477 96.5565 25.769 97.5989 26.9593 99.4086C33.3735 103.34 31.7368 106.695 30.3125 109.605C29.813 110.632 29.3506 111.568 29.6642 112.124C30.8174 114.177 31.1203 116.706 30.3816 118.759C43.8638 125.649 59.7848 126.278 73.7348 120.4C73.4851 119.95 73.2565 119.431 73.0493 118.849C72.8633 118.331 72.3 118.093 71.7898 118.341C66.4596 120.934 61.0284 120.103 58.8603 114.193C57.8346 111.404 57.6168 109.272 58.3236 106.362C60.9382 95.5458 65.6253 96.0856 72.449 96.8687C74.5003 97.1068 76.7695 97.3661 79.1928 97.2708C82.2909 97.1491 83.3962 97.0063 84.0499 93.9107C84.4857 91.8524 83.7151 89.8733 83.1253 88.0213C80.9039 80.9942 86.2128 78.8088 92.0744 78.1315C96.1239 77.6659 100.737 78.2374 104.701 79.121L105.004 74.708C78.8956 74.7027 52.7643 74.7028 26.6343 74.7028ZM28.0691 117.495C28.3773 116.209 28.1222 114.664 27.3995 113.378C26.427 111.643 27.171 110.129 27.9788 108.473C28.9353 106.515 30.0407 104.256 25.3908 101.483C25.2473 101.398 25.1145 101.282 25.0082 101.134C21.8781 96.8528 24.9125 95.0115 26.5174 93.2653C28.6006 91.0005 29.0683 89.0956 28.4625 87.6245C27.5537 85.4127 24.4502 84.1428 22.0163 83.5977C16.4204 82.333 8.94325 83.3067 4.58085 87.5027C8.23704 100.102 16.643 110.859 28.0691 117.495ZM104.365 81.6872C100.598 80.8299 96.2346 80.2532 92.3925 80.6976C89.932 80.9834 87.7053 81.5019 86.3927 82.5708C85.1066 83.6185 84.9154 85.1477 85.6965 87.476C86.3767 89.5079 87.1579 91.8308 86.6105 94.4342C85.6487 99.0219 83.3157 99.6939 79.3141 99.8474C76.6623 99.9532 74.3027 99.6833 72.1718 99.4346C66.6981 98.8049 62.9356 98.371 60.8631 106.954C60.2838 109.34 60.4751 111.002 61.3201 113.309C62.9409 117.732 66.7778 117.896 70.6678 116.007C72.5544 115.092 74.8183 116.018 75.5144 117.986L76.1202 119.325C91.0538 112.118 101.628 98.1592 104.365 81.6872ZM44.4842 72.1097H49.554V60.4844C49.554 59.7701 50.1386 59.188 50.856 59.188H59.3959C60.1133 59.188 60.6979 59.7701 60.6979 60.4844V72.1097H65.7677V48.8591H44.4836L44.4842 72.1097ZM68.3722 72.1097V47.5628C68.3722 46.8484 67.7877 46.2664 67.0702 46.2664H61.2565V35.3184C62.6435 29.6937 66.0978 25.0795 70.6361 22.1163C74.9299 19.3118 80.2016 17.9889 85.6173 18.6821V28.1696L71.0932 28.1643C69.382 28.1643 69.382 30.7572 71.0932 30.7572H85.6173V33.9955H71.0932C69.382 33.9955 69.382 36.5884 71.0932 36.5884H85.6173V39.8267L71.0932 39.8214C69.382 39.8214 69.382 42.4143 71.0932 42.4143H85.6173V45.6526H71.0932C69.382 45.6526 69.382 48.2454 71.0932 48.2454H85.6173V51.4838L71.0932 51.4785C69.382 51.4785 69.382 54.0713 71.0932 54.0713H85.6173V72.1147H68.3723L68.3722 72.1097ZM52.1585 72.1097H58.0945V61.7808H52.1585V72.1097ZM35.3502 46.2664H38.9638C39.6812 46.2664 40.2658 46.8485 40.2658 47.5628V52.2775C40.2658 52.9919 39.6812 53.5739 38.9638 53.5739H35.3502C34.6328 53.5739 34.0482 52.9919 34.0482 52.2775V47.5628C34.0482 46.8485 34.6275 46.2664 35.3502 46.2664ZM37.6619 48.8593H36.6522V50.9811H37.6619V48.8593ZM26.2522 46.2664C25.5348 46.2664 24.9503 46.8485 24.9503 47.5628V52.2775C24.9503 52.9919 25.5348 53.5739 26.2522 53.5739H29.8659C30.5833 53.5739 31.1678 52.9919 31.1678 52.2775V47.5628C31.1678 46.8485 30.5833 46.2664 29.8659 46.2664H26.2522ZM28.5639 48.8593H27.5489V50.9811H28.5586L28.5639 48.8593ZM44.4484 37.1494H48.062C48.7795 37.1494 49.364 37.7314 49.364 38.4458V43.1605C49.364 43.8748 48.7795 44.4569 48.062 44.4569H44.4484C43.731 44.4569 43.1465 43.8748 43.1465 43.1605V38.4458C43.1465 37.7314 43.7257 37.1494 44.4484 37.1494ZM46.7601 39.7422V41.8641H45.7504V39.7422H46.7601ZM35.3505 37.1494H38.9641C39.6815 37.1494 40.2661 37.7314 40.2661 38.4458V43.1605C40.2661 43.8748 39.6815 44.4569 38.9641 44.4569H35.3505C34.6331 44.4569 34.0485 43.8748 34.0485 43.1605V38.4458C34.0485 37.7314 34.6277 37.1494 35.3505 37.1494ZM37.6621 39.7422H36.6524V41.8641H37.6621V39.7422ZM26.2525 37.1494C25.5351 37.1494 24.9505 37.7314 24.9505 38.4458V43.1605C24.9505 43.8748 25.5351 44.4569 26.2525 44.4569H29.8661C30.5835 44.4569 31.1681 43.8748 31.1681 43.1605V38.4458C31.1681 37.7314 30.5835 37.1494 29.8661 37.1494H26.2525ZM28.5642 39.7422H27.5492V41.8641H28.5589L28.5642 39.7422ZM44.4487 28.0323H48.0623C48.7797 28.0323 49.3643 28.6144 49.3643 29.3287V34.0434C49.3643 34.7577 48.7797 35.3398 48.0623 35.3398H44.4487C43.7313 35.3398 43.1467 34.7577 43.1467 34.0434V29.3287C43.1467 28.6144 43.726 28.0323 44.4487 28.0323ZM46.7604 30.6251V32.747H45.7507V30.6251H46.7604ZM35.3507 28.0323H38.9644C39.6818 28.0323 40.2663 28.6144 40.2663 29.3287V34.0434C40.2663 34.7577 39.6818 35.3398 38.9644 35.3398H35.3507C34.6333 35.3398 34.0488 34.7577 34.0488 34.0434V29.3287C34.0488 28.6144 34.628 28.0323 35.3507 28.0323ZM37.6624 30.6251H36.6527V32.747H37.6624V30.6251ZM26.2528 28.0323C25.5354 28.0323 24.9508 28.6144 24.9508 29.3287V34.0434C24.9508 34.7577 25.5354 35.3398 26.2528 35.3398H29.8664C30.5838 35.3398 31.1684 34.7577 31.1684 34.0434V29.3287C31.1684 28.6144 30.5838 28.0323 29.8664 28.0323H26.2528ZM28.5644 30.6251H27.5494V32.747H28.5591L28.5644 30.6251ZM44.2204 10.1787H63.4258V3.67546L44.2204 7.09368V10.1787Z" fill="#B29152"/>
</svg>
